<svg xmlns="http://www.w3.org/2000/svg" version="1.1" xmlns:xlink="http://www.w3.org/1999/xlink" xmlns:svgjs="http://svgjs.dev/svgjs" width="110.4875px" height="155.6px"><svg width="110.4875px" height="155.6px" xmlns="http://www.w3.org/2000/svg" viewBox="194.75625 -2.799999999999997 110.4875 155.6" style="background: rgba(0, 0, 0, 0);" preserveAspectRatio="xMidYMid"><defs><filter id="SvgjsFilter1008"><feFlood floodColor="#333333" result="flood-1"></feFlood><feMorphology operator="erode" radius="1" in="SourceAlpha" result="erode"></feMorphology><feComposite operator="in" in="flood-1" in2="erode" result="comp1"></feComposite><feConvolveMatrix order="0,0" divisor="1" in="comp1" result="convolve" kernelMatrix=""></feConvolveMatrix><feOffset dx="0" dy="0" in="convolve" result="extrude"></feOffset><feComposite operator="in" in="flood-1" in2="extrude" result="comp-extrude"></feComposite><feFlood floodColor="rgba(20%,20%,20%,0)" result="flood-2"></feFlood><feComposite operator="in" in="flood-2" in2="SourceAlpha" result="comp2"></feComposite><feMorphology operator="dilate" radius="1" in="comp2" result="dilate"></feMorphology><feOffset dx="0" dy="0" in="dilate" result="offset"></feOffset><feGaussianBlur in="offset" stdDeviation="5.8" result="blur"></feGaussianBlur><feComponentTransfer in="blur" result="shadow"><feFuncA type="linear" slope="0.8" intercept="-0.2"></feFuncA></feComponentTransfer><feMerge><feMergeNode in="shadow"></feMergeNode><feMergeNode in="comp-extrude"></feMergeNode><feMergeNode in="SourceGraphic"></feMergeNode></feMerge></filter></defs><g filter="url(#editing-extrude-glow)"><g transform="translate(217.0300076007843, 102.00000190734863)"><path d="M5.31-11.25L5.31-11.25L1.47-11.25L1.47-13.50L5.31-13.50L5.31-13.50Q6.97-13.50 8.09-14.75L8.09-14.75L8.09-14.75Q9.22-16 9.22-18.06L9.22-18.06L9.22-51.75L11.47-51.75L11.47-18.06L11.47-18.06Q11.47-15.09 9.69-13.17L9.69-13.17L9.69-13.17Q7.91-11.25 5.31-11.25ZM5.31-6.75L5.31-6.75L1.47-6.75L1.47-9L5.31-9L5.31-9Q8.81-9 11.27-11.66L11.27-11.66L11.27-11.66Q13.72-14.31 13.72-18.06L13.72-18.06L13.72-51.75L15.97-51.75L15.97-18.06L15.97-18.06Q15.97-13.38 12.86-10.06L12.86-10.06L12.86-10.06Q9.75-6.75 5.31-6.75ZM5.31-2.25L5.31-2.25L1.47-2.25L1.47-4.50L5.31-4.50L5.31-4.50Q10.69-4.50 14.45-8.47L14.45-8.47L14.45-8.47Q18.22-12.44 18.22-18.06L18.22-18.06L18.22-51.75L20.47-51.75L20.47-18.06L20.47-18.06Q20.47-13.78 18.45-10.14L18.45-10.14L18.45-10.14Q16.44-6.50 12.94-4.38L12.94-4.38L12.94-4.38Q9.44-2.25 5.31-2.25ZM5.31 2.25L5.31 2.25L1.47 2.25L1.47 0L5.31 0L5.31 0Q8.88 0 12.09-1.44L12.09-1.44L12.09-1.44Q15.31-2.88 17.64-5.30L17.64-5.30L17.64-5.30Q19.97-7.72 21.34-11.06L21.34-11.06L21.34-11.06Q22.72-14.41 22.72-18.06L22.72-18.06L22.72-51.75L24.97-51.75L24.97-18.06L24.97-18.06Q24.97-13.94 23.42-10.19L23.42-10.19L23.42-10.19Q21.88-6.44 19.23-3.70L19.23-3.70L19.23-3.70Q16.59-0.97 12.95 0.64L12.95 0.64L12.95 0.64Q9.31 2.25 5.31 2.25ZM30.72 0L30.72-51.75L32.97-51.75L32.97 0L30.72 0ZM44.22 0L44.22-51.75L46.47-51.75L46.47-11.25L64.47-11.25L64.47-9L46.47-9L46.47-6.75L64.47-6.75L64.47-4.50L46.47-4.50L46.47-2.25L64.47-2.25L64.47 0L44.22 0ZM39.72 0L39.72-51.75L41.97-51.75L41.97 0L39.72 0ZM35.22 0L35.22-51.75L37.47-51.75L37.47 0L35.22 0Z" fill="#e3afbe"></path></g></g><style>text {
  font-size: 64px;
  font-family: Arial Black;
  dominant-baseline: central;
  text-anchor: middle;
}</style></svg><style>@media (prefers-color-scheme: light) { :root { filter: none; } }
@media (prefers-color-scheme: dark) { :root { filter: none; } }
</style></svg>
